<mxfile host="app.diagrams.net" modified="2021-10-22T04:37:10.942Z" agent="5.0 (Macintosh; Intel Mac OS X 10_15_7) AppleWebKit/537.36 (KHTML, like Gecko) Chrome/94.0.4606.81 Safari/537.36" etag="MYDyKVWvKuLCbOU4tjFU" version="15.5.8" type="github">
  <diagram id="C5RBs43oDa-KdzZeNtuy" name="Page-1">
    <mxGraphModel dx="1586" dy="867" grid="1" gridSize="10" guides="1" tooltips="1" connect="1" arrows="1" fold="1" page="1" pageScale="1" pageWidth="827" pageHeight="1169" math="0" shadow="0">
      <root>
        <mxCell id="WIyWlLk6GJQsqaUBKTNV-0" />
        <mxCell id="WIyWlLk6GJQsqaUBKTNV-1" parent="WIyWlLk6GJQsqaUBKTNV-0" />
        <mxCell id="r38P1CEJzHlGoVk8WFls-3" value="Usuario" style="swimlane;fontStyle=1;align=center;verticalAlign=top;childLayout=stackLayout;horizontal=1;startSize=26;horizontalStack=0;resizeParent=1;resizeParentMax=0;resizeLast=0;collapsible=1;marginBottom=0;" vertex="1" parent="WIyWlLk6GJQsqaUBKTNV-1">
          <mxGeometry x="334" y="300" width="160" height="330" as="geometry" />
        </mxCell>
        <mxCell id="r38P1CEJzHlGoVk8WFls-4" value="-IdUsuario:int&#xa;-Nombre: String&#xa;-Apellido: String&#xa;-correo:String&#xa;-FechaIngreso: Int&#xa;-direccion:String&#xa;-celular:Int&#xa;-telefono:Int&#xa;-TipoContrato: String&#xa;-FechaTerminoContrato: Int&#xa;-Cargo: String&#xa;-Dependencia: String&#xa;-Salario: Float&#xa;-C.C.: int&#xa;-idRol: int&#xa;-Contraseña: String" style="text;strokeColor=none;fillColor=none;align=left;verticalAlign=top;spacingLeft=4;spacingRight=4;overflow=hidden;rotatable=0;points=[[0,0.5],[1,0.5]];portConstraint=eastwest;" vertex="1" parent="r38P1CEJzHlGoVk8WFls-3">
          <mxGeometry y="26" width="160" height="244" as="geometry" />
        </mxCell>
        <mxCell id="r38P1CEJzHlGoVk8WFls-5" value="" style="line;strokeWidth=1;fillColor=none;align=left;verticalAlign=middle;spacingTop=-1;spacingLeft=3;spacingRight=3;rotatable=0;labelPosition=right;points=[];portConstraint=eastwest;" vertex="1" parent="r38P1CEJzHlGoVk8WFls-3">
          <mxGeometry y="270" width="160" height="8" as="geometry" />
        </mxCell>
        <mxCell id="r38P1CEJzHlGoVk8WFls-6" value="+Login(String Correo, String Contraseña)&#xa;+Olvido contrasena()&#xa;+cambiarContraseña()" style="text;strokeColor=none;fillColor=none;align=left;verticalAlign=top;spacingLeft=4;spacingRight=4;overflow=hidden;rotatable=0;points=[[0,0.5],[1,0.5]];portConstraint=eastwest;" vertex="1" parent="r38P1CEJzHlGoVk8WFls-3">
          <mxGeometry y="278" width="160" height="52" as="geometry" />
        </mxCell>
        <mxCell id="r38P1CEJzHlGoVk8WFls-30" style="edgeStyle=orthogonalEdgeStyle;rounded=0;orthogonalLoop=1;jettySize=auto;html=1;exitX=0.5;exitY=0;exitDx=0;exitDy=0;entryX=0;entryY=0.5;entryDx=0;entryDy=0;endArrow=block;endFill=0;" edge="1" parent="WIyWlLk6GJQsqaUBKTNV-1" source="r38P1CEJzHlGoVk8WFls-7" target="r38P1CEJzHlGoVk8WFls-6">
          <mxGeometry relative="1" as="geometry" />
        </mxCell>
        <mxCell id="r38P1CEJzHlGoVk8WFls-38" value="Crea" style="edgeStyle=orthogonalEdgeStyle;rounded=0;orthogonalLoop=1;jettySize=auto;entryX=0;entryY=0.5;entryDx=0;entryDy=0;endArrow=none;endFill=0;fontFamily=Helvetica;fontSize=14;" edge="1" parent="WIyWlLk6GJQsqaUBKTNV-1" source="r38P1CEJzHlGoVk8WFls-7" target="r38P1CEJzHlGoVk8WFls-23">
          <mxGeometry x="-0.0461" relative="1" as="geometry">
            <mxPoint x="-1" as="offset" />
          </mxGeometry>
        </mxCell>
        <mxCell id="r38P1CEJzHlGoVk8WFls-7" value="Super Administrador" style="swimlane;fontStyle=1;align=center;verticalAlign=top;childLayout=stackLayout;horizontal=1;startSize=26;horizontalStack=0;resizeParent=1;resizeParentMax=0;resizeLast=0;collapsible=1;marginBottom=0;" vertex="1" parent="WIyWlLk6GJQsqaUBKTNV-1">
          <mxGeometry x="-180" y="770" width="350" height="130" as="geometry" />
        </mxCell>
        <mxCell id="r38P1CEJzHlGoVk8WFls-9" value="" style="line;strokeWidth=1;fillColor=none;align=left;verticalAlign=middle;spacingTop=-1;spacingLeft=3;spacingRight=3;rotatable=0;labelPosition=right;points=[];portConstraint=eastwest;" vertex="1" parent="r38P1CEJzHlGoVk8WFls-7">
          <mxGeometry y="26" width="350" height="8" as="geometry" />
        </mxCell>
        <mxCell id="r38P1CEJzHlGoVk8WFls-10" value="+registroUsuario(Persona objetoUsuario)&#xa;+verUsuario(int C.C.)&#xa;+verListaUsuarios(int Rol)&#xa;+editarUsuario(Persona objetoUsuario)&#xa;+eliminarUsuario(int C.C.)&#xa;+generarRetroalimentacion(int C.C.,String Retroalimentacion)" style="text;strokeColor=none;fillColor=none;align=left;verticalAlign=top;spacingLeft=4;spacingRight=4;overflow=hidden;rotatable=0;points=[[0,0.5],[1,0.5]];portConstraint=eastwest;" vertex="1" parent="r38P1CEJzHlGoVk8WFls-7">
          <mxGeometry y="34" width="350" height="96" as="geometry" />
        </mxCell>
        <mxCell id="r38P1CEJzHlGoVk8WFls-31" style="edgeStyle=orthogonalEdgeStyle;rounded=0;orthogonalLoop=1;jettySize=auto;html=1;exitX=0.5;exitY=0;exitDx=0;exitDy=0;entryX=1;entryY=0.5;entryDx=0;entryDy=0;endArrow=block;endFill=0;" edge="1" parent="WIyWlLk6GJQsqaUBKTNV-1" source="r38P1CEJzHlGoVk8WFls-42" target="r38P1CEJzHlGoVk8WFls-6">
          <mxGeometry relative="1" as="geometry">
            <mxPoint x="815" y="770" as="sourcePoint" />
          </mxGeometry>
        </mxCell>
        <mxCell id="r38P1CEJzHlGoVk8WFls-33" style="edgeStyle=orthogonalEdgeStyle;rounded=0;orthogonalLoop=1;jettySize=auto;html=1;endArrow=block;endFill=0;" edge="1" parent="WIyWlLk6GJQsqaUBKTNV-1" target="r38P1CEJzHlGoVk8WFls-6">
          <mxGeometry relative="1" as="geometry">
            <mxPoint x="414" y="640" as="targetPoint" />
            <mxPoint x="400" y="765" as="sourcePoint" />
            <Array as="points">
              <mxPoint x="400" y="730" />
              <mxPoint x="400" y="730" />
            </Array>
          </mxGeometry>
        </mxCell>
        <mxCell id="r38P1CEJzHlGoVk8WFls-51" style="edgeStyle=orthogonalEdgeStyle;rounded=0;orthogonalLoop=1;jettySize=auto;html=0;entryX=0.337;entryY=1.001;entryDx=0;entryDy=0;entryPerimeter=0;fontFamily=Helvetica;fontSize=14;endArrow=none;endFill=0;" edge="1" parent="WIyWlLk6GJQsqaUBKTNV-1" source="r38P1CEJzHlGoVk8WFls-22" target="r38P1CEJzHlGoVk8WFls-44">
          <mxGeometry relative="1" as="geometry" />
        </mxCell>
        <mxCell id="r38P1CEJzHlGoVk8WFls-22" value="Retroalimentacion" style="swimlane;fontStyle=1;align=center;verticalAlign=top;childLayout=stackLayout;horizontal=1;startSize=26;horizontalStack=0;resizeParent=1;resizeParentMax=0;resizeLast=0;collapsible=1;marginBottom=0;" vertex="1" parent="WIyWlLk6GJQsqaUBKTNV-1">
          <mxGeometry x="667" y="1000" width="160" height="138" as="geometry" />
        </mxCell>
        <mxCell id="r38P1CEJzHlGoVk8WFls-23" value="-IdRetroalimentacion:Int&#xa;-IdEmpleado:Int&#xa;-IdAdministrador:Int&#xa;-C.C. empleado: Int&#xa;-Comentario: String&#xa;-Puntaje: Double&#xa;-Fecha: String" style="text;strokeColor=none;fillColor=none;align=left;verticalAlign=top;spacingLeft=4;spacingRight=4;overflow=hidden;rotatable=0;points=[[0,0.5],[1,0.5]];portConstraint=eastwest;" vertex="1" parent="r38P1CEJzHlGoVk8WFls-22">
          <mxGeometry y="26" width="160" height="104" as="geometry" />
        </mxCell>
        <mxCell id="r38P1CEJzHlGoVk8WFls-24" value="" style="line;strokeWidth=1;fillColor=none;align=left;verticalAlign=middle;spacingTop=-1;spacingLeft=3;spacingRight=3;rotatable=0;labelPosition=right;points=[];portConstraint=eastwest;" vertex="1" parent="r38P1CEJzHlGoVk8WFls-22">
          <mxGeometry y="130" width="160" height="8" as="geometry" />
        </mxCell>
        <mxCell id="r38P1CEJzHlGoVk8WFls-35" style="edgeStyle=orthogonalEdgeStyle;rounded=0;orthogonalLoop=1;jettySize=auto;html=1;entryX=1.007;entryY=0.467;entryDx=0;entryDy=0;entryPerimeter=0;endArrow=oval;endFill=0;startArrow=diamond;startFill=0;" edge="1" parent="WIyWlLk6GJQsqaUBKTNV-1" source="r38P1CEJzHlGoVk8WFls-26" target="r38P1CEJzHlGoVk8WFls-4">
          <mxGeometry relative="1" as="geometry" />
        </mxCell>
        <mxCell id="r38P1CEJzHlGoVk8WFls-26" value="Rol" style="swimlane;fontStyle=1;align=center;verticalAlign=top;childLayout=stackLayout;horizontal=1;startSize=26;horizontalStack=0;resizeParent=1;resizeParentMax=0;resizeLast=0;collapsible=1;marginBottom=0;" vertex="1" parent="WIyWlLk6GJQsqaUBKTNV-1">
          <mxGeometry x="580" y="400" width="160" height="78" as="geometry" />
        </mxCell>
        <mxCell id="r38P1CEJzHlGoVk8WFls-27" value="-idRol:Int&#xa;-tipoRol:String" style="text;strokeColor=none;fillColor=none;align=left;verticalAlign=top;spacingLeft=4;spacingRight=4;overflow=hidden;rotatable=0;points=[[0,0.5],[1,0.5]];portConstraint=eastwest;" vertex="1" parent="r38P1CEJzHlGoVk8WFls-26">
          <mxGeometry y="26" width="160" height="44" as="geometry" />
        </mxCell>
        <mxCell id="r38P1CEJzHlGoVk8WFls-28" value="" style="line;strokeWidth=1;fillColor=none;align=left;verticalAlign=middle;spacingTop=-1;spacingLeft=3;spacingRight=3;rotatable=0;labelPosition=right;points=[];portConstraint=eastwest;" vertex="1" parent="r38P1CEJzHlGoVk8WFls-26">
          <mxGeometry y="70" width="160" height="8" as="geometry" />
        </mxCell>
        <mxCell id="r38P1CEJzHlGoVk8WFls-37" style="edgeStyle=orthogonalEdgeStyle;rounded=0;orthogonalLoop=1;jettySize=auto;html=1;endArrow=none;endFill=0;" edge="1" parent="WIyWlLk6GJQsqaUBKTNV-1" source="r38P1CEJzHlGoVk8WFls-23">
          <mxGeometry relative="1" as="geometry">
            <mxPoint x="400" y="900" as="targetPoint" />
          </mxGeometry>
        </mxCell>
        <mxCell id="r38P1CEJzHlGoVk8WFls-39" value="&lt;span style=&quot;color: rgb(0, 0, 0); font-family: helvetica; font-size: 14px; font-style: normal; font-weight: 400; letter-spacing: normal; text-align: center; text-indent: 0px; text-transform: none; word-spacing: 0px; background-color: rgb(255, 255, 255); display: inline; float: none;&quot;&gt;1&lt;/span&gt;" style="text;whiteSpace=wrap;html=1;fontSize=14;fontFamily=Helvetica;" vertex="1" parent="WIyWlLk6GJQsqaUBKTNV-1">
          <mxGeometry y="900" width="50" height="40" as="geometry" />
        </mxCell>
        <mxCell id="r38P1CEJzHlGoVk8WFls-40" value="&lt;span style=&quot;color: rgb(0, 0, 0); font-family: helvetica; font-size: 14px; font-style: normal; font-weight: 400; letter-spacing: normal; text-align: center; text-indent: 0px; text-transform: none; word-spacing: 0px; background-color: rgb(255, 255, 255); display: inline; float: none;&quot;&gt;0..*&lt;/span&gt;" style="text;whiteSpace=wrap;html=1;fontSize=14;fontFamily=Helvetica;" vertex="1" parent="WIyWlLk6GJQsqaUBKTNV-1">
          <mxGeometry x="630" y="1049" width="50" height="40" as="geometry" />
        </mxCell>
        <mxCell id="r38P1CEJzHlGoVk8WFls-41" value="&lt;span style=&quot;color: rgb(0 , 0 , 0) ; font-family: &amp;#34;helvetica&amp;#34; ; font-size: 14px ; font-style: normal ; font-weight: 400 ; letter-spacing: normal ; text-align: center ; text-indent: 0px ; text-transform: none ; word-spacing: 0px ; background-color: rgb(255 , 255 , 255) ; display: inline ; float: none&quot;&gt;1&lt;/span&gt;" style="text;whiteSpace=wrap;html=1;fontSize=14;fontFamily=Helvetica;" vertex="1" parent="WIyWlLk6GJQsqaUBKTNV-1">
          <mxGeometry x="400" y="910" width="50" height="40" as="geometry" />
        </mxCell>
        <mxCell id="r38P1CEJzHlGoVk8WFls-42" value="Empleado" style="swimlane;fontStyle=1;align=center;verticalAlign=top;childLayout=stackLayout;horizontal=1;startSize=26;horizontalStack=0;resizeParent=1;resizeParentMax=0;resizeLast=0;collapsible=1;marginBottom=0;" vertex="1" parent="WIyWlLk6GJQsqaUBKTNV-1">
          <mxGeometry x="630" y="800" width="350" height="80" as="geometry" />
        </mxCell>
        <mxCell id="r38P1CEJzHlGoVk8WFls-43" value="" style="line;strokeWidth=1;fillColor=none;align=left;verticalAlign=middle;spacingTop=-1;spacingLeft=3;spacingRight=3;rotatable=0;labelPosition=right;points=[];portConstraint=eastwest;" vertex="1" parent="r38P1CEJzHlGoVk8WFls-42">
          <mxGeometry y="26" width="350" height="8" as="geometry" />
        </mxCell>
        <mxCell id="r38P1CEJzHlGoVk8WFls-44" value="+visualizarInformacion()&#xa;+visualizarRetroalimentacion()" style="text;strokeColor=none;fillColor=none;align=left;verticalAlign=top;spacingLeft=4;spacingRight=4;overflow=hidden;rotatable=0;points=[[0,0.5],[1,0.5]];portConstraint=eastwest;" vertex="1" parent="r38P1CEJzHlGoVk8WFls-42">
          <mxGeometry y="34" width="350" height="46" as="geometry" />
        </mxCell>
        <mxCell id="r38P1CEJzHlGoVk8WFls-45" value="Administrador" style="swimlane;fontStyle=1;align=center;verticalAlign=top;childLayout=stackLayout;horizontal=1;startSize=26;horizontalStack=0;resizeParent=1;resizeParentMax=0;resizeLast=0;collapsible=1;marginBottom=0;" vertex="1" parent="WIyWlLk6GJQsqaUBKTNV-1">
          <mxGeometry x="238" y="770" width="350" height="134" as="geometry" />
        </mxCell>
        <mxCell id="r38P1CEJzHlGoVk8WFls-46" value="" style="line;strokeWidth=1;fillColor=none;align=left;verticalAlign=middle;spacingTop=-1;spacingLeft=3;spacingRight=3;rotatable=0;labelPosition=right;points=[];portConstraint=eastwest;" vertex="1" parent="r38P1CEJzHlGoVk8WFls-45">
          <mxGeometry y="26" width="350" height="8" as="geometry" />
        </mxCell>
        <mxCell id="r38P1CEJzHlGoVk8WFls-47" value="+registroUsuario(Empleado objetoEmpleado)&#xa;+verEmpleado(int C.C.)&#xa;+verListaEmpleado(int Rol)&#xa;+editarEmpleado(Empleado objetoEmpleado)&#xa;+eliminarEmpleado(int C.C.)&#xa;+generarRetroalimentacion(int C.C.,String Retroalimentacion)" style="text;strokeColor=none;fillColor=none;align=left;verticalAlign=top;spacingLeft=4;spacingRight=4;overflow=hidden;rotatable=0;points=[[0,0.5],[1,0.5]];portConstraint=eastwest;" vertex="1" parent="r38P1CEJzHlGoVk8WFls-45">
          <mxGeometry y="34" width="350" height="100" as="geometry" />
        </mxCell>
        <mxCell id="r38P1CEJzHlGoVk8WFls-52" value="&lt;span style=&quot;color: rgb(0, 0, 0); font-family: helvetica; font-size: 14px; font-style: normal; font-weight: 400; letter-spacing: normal; text-align: center; text-indent: 0px; text-transform: none; word-spacing: 0px; background-color: rgb(255, 255, 255); display: inline; float: none;&quot;&gt;0..*&lt;/span&gt;" style="text;whiteSpace=wrap;html=1;fontSize=14;fontFamily=Helvetica;" vertex="1" parent="WIyWlLk6GJQsqaUBKTNV-1">
          <mxGeometry x="750" y="960" width="50" height="40" as="geometry" />
        </mxCell>
        <mxCell id="r38P1CEJzHlGoVk8WFls-54" value="&lt;span style=&quot;color: rgb(0 , 0 , 0) ; font-family: &amp;#34;helvetica&amp;#34; ; font-size: 14px ; font-style: normal ; font-weight: 400 ; letter-spacing: normal ; text-align: center ; text-indent: 0px ; text-transform: none ; word-spacing: 0px ; background-color: rgb(255 , 255 , 255) ; display: inline ; float: none&quot;&gt;1&lt;/span&gt;" style="text;whiteSpace=wrap;html=1;fontSize=14;fontFamily=Helvetica;" vertex="1" parent="WIyWlLk6GJQsqaUBKTNV-1">
          <mxGeometry x="750" y="880" width="50" height="40" as="geometry" />
        </mxCell>
        <mxCell id="r38P1CEJzHlGoVk8WFls-55" value="&lt;span style=&quot;color: rgb(0 , 0 , 0) ; font-family: &amp;#34;helvetica&amp;#34; ; font-size: 14px ; font-style: normal ; font-weight: 400 ; letter-spacing: normal ; text-align: center ; text-indent: 0px ; text-transform: none ; word-spacing: 0px ; background-color: rgb(255 , 255 , 255) ; display: inline ; float: none&quot;&gt;Contiene&lt;/span&gt;" style="text;whiteSpace=wrap;html=1;fontSize=14;fontFamily=Helvetica;" vertex="1" parent="WIyWlLk6GJQsqaUBKTNV-1">
          <mxGeometry x="750" y="920" width="50" height="40" as="geometry" />
        </mxCell>
      </root>
    </mxGraphModel>
  </diagram>
</mxfile>
